<svg width="80" height="83" viewBox="0 0 80 83" fill="none" xmlns="http://www.w3.org/2000/svg">
<path d="M80 40C80 59.7174 65.7337 76.1026 46.9602 79.3966C42.5011 80.179 38.0899 78.4266 34.4455 75.7408C9.16956 57.1137 0 60.6444 0 40C0 17.9086 17.9086 0 40 0C62.0914 0 80 17.9086 80 40Z" fill="#4221EE"/>
<path d="M9.50002 60C10.7866 60.4752 12.0035 59.1539 11.4243 57.9107L11 57L16.5549 62.7335L13.0076 65.4408L9.50002 60Z" fill="white"/>
<path d="M9.50002 60C10.7866 60.4752 12.0035 59.1539 11.4243 57.9107L11 57L16.5549 62.7335L13.0076 65.4408L9.50002 60Z" fill="white"/>
<path d="M35 73.5C34.0125 73.2744 33.2329 74.3375 33.745 75.2115L34.5 76.5L29 72.2319L31.9208 69.1642L35 73.5Z" fill="white"/>
<path d="M35 73.5C34.085 73.3492 33.7213 74.0721 33.8751 74.8726C33.9847 75.4432 34.3039 75.9531 34.5 76.5L29 72.2319L31.9208 69.1642L35 73.5Z" fill="white"/>
<circle cx="40" cy="40" r="33.8462" fill="white"/>
<circle cx="40.6154" cy="39.3846" r="25.8462" fill="#4221EE"/>
<path d="M22.1944 70.8647C20.5551 71.5815 18.8714 69.9498 19.5365 68.2888L28.109 46.8791C28.6376 45.559 30.3364 45.1967 31.3576 46.1864L43.9155 58.3567C44.9367 59.3463 44.6279 61.0556 43.3249 61.6254L22.1944 70.8647Z" fill="#4221EE"/>
<rect x="42.5887" y="30" width="3.69231" height="20.3348" rx="1.84615" transform="rotate(19.8246 42.5887 30)" fill="white"/>
<rect width="2.96668" height="10.9541" rx="1.48334" transform="matrix(0.480834 0.876812 -0.860061 0.510192 32.6504 33.4615)" fill="white"/>
<rect width="2.96938" height="11.0529" rx="1.48469" transform="matrix(-0.45667 0.889636 -0.874263 -0.485453 34.0191 43.1276)" fill="white"/>
<rect width="2.96668" height="10.9541" rx="1.48334" transform="matrix(-0.480834 -0.876812 0.860061 -0.510192 48.4265 45.7692)" fill="white"/>
<rect width="2.96938" height="11.0529" rx="1.48469" transform="matrix(0.45667 -0.889636 0.874263 0.485453 47.0577 36.1032)" fill="white"/>
</svg>
